# xmcd
#
# Track frame offsets:
#  150
#  8370
#  39987
#  60105
#  79045
#  100715
#  131012
#  153965
#  167407
#  187722
#  197065
#
# Disc length: 2803 seconds
#
# Revision: 0
# Processed by: cddbd v1.5.2PL0 Copyright (c) Steve Scherf et al.
# Submitted via: AltoMP3_Maker 3.0
#
DISCID=6a0af10b
DTITLE=Pablo Milanes - Proposiciones (1988)
DYEAR=1900
DGENRE=
TTITLE0=Proposiciones
TTITLE1=Son para despertar a una negrita
TTITLE2=El primer amor
TTITLE3=Y siempre dimos más
TTITLE4=Cuando te encontré
TTITLE5=Nelson Mandela, sus dos amores
TTITLE6=La felicidad
TTITLE7=Ser o no ser
TTITLE8=Quiero ser de nuevo el que te amó
TTITLE9=Proposiciones
TTITLE10=La paloma planidera (Bonus Track)
EXTD=
EXTT0=
EXTT1=
EXTT2=
EXTT3=
EXTT4=
EXTT5=
EXTT6=
EXTT7=
EXTT8=
EXTT9=
EXTT10=
PLAYORDER=
